<svg width="10" height="7" viewBox="0 0 10 7" fill="none" xmlns="http://www.w3.org/2000/svg">
<path fill-rule="evenodd" clip-rule="evenodd" d="M3.82625 0.953188L3.83515 0.953125H8.88202C9.2272 0.953125 9.50702 1.23295 9.50702 1.57812C9.50702 1.9233 9.2272 2.20312 8.88202 2.20312H3.84399L3.83894 2.20828L3.83891 2.20825L1.30859 4.73075L1.30956 4.73094L4.583 5.38719C4.92144 5.45504 5.1408 5.78441 5.07295 6.12285C5.0051 6.4613 4.67574 6.68066 4.33729 6.61281L1.06483 5.95675C1.06464 5.95671 1.06445 5.95668 1.06426 5.95664C0.842516 5.91244 0.636904 5.80892 0.469332 5.65711C0.301619 5.50516 0.178302 5.31054 0.112537 5.094C0.0467728 4.87746 0.0410284 4.64712 0.0959177 4.42757C0.150807 4.20802 0.26427 4.00749 0.424202 3.84738L0.425139 3.84644L0.42514 3.84644L2.95424 1.32514C3.18475 1.09151 3.49796 0.957864 3.82625 0.953188Z" fill="#A259FF"/>
</svg>
